<svg width="80" height="80" viewBox="0 0 80 80" fill="none" xmlns="http://www.w3.org/2000/svg">
  <defs>
    <!-- Gradients for modern look -->
    <linearGradient id="bg1" x1="0" y1="0" x2="80" y2="80">
      <stop offset="0%" stop-color="#667eea"/>
      <stop offset="100%" stop-color="#764ba2"/>
    </linearGradient>
    <linearGradient id="bg2" x1="0" y1="0" x2="80" y2="80">
      <stop offset="0%" stop-color="#f093fb"/>
      <stop offset="100%" stop-color="#f5576c"/>
    </linearGradient>
    <linearGradient id="bg3" x1="0" y1="0" x2="80" y2="80">
      <stop offset="0%" stop-color="#4facfe"/>
      <stop offset="100%" stop-color="#00f2fe"/>
    </linearGradient>
    <linearGradient id="folderGrad" x1="20" y1="35" x2="60" y2="65">
      <stop offset="0%" stop-color="#FFD54F"/>
      <stop offset="100%" stop-color="#FFB300"/>
    </linearGradient>
    <filter id="shadow">
      <feDropShadow dx="0" dy="2" stdDeviation="3" flood-opacity="0.3"/>
    </filter>
  </defs>
  
  <!-- Background circle (optional) -->
  <circle cx="40" cy="40" r="38" fill="#F5F7FA" opacity="0.5"/>
  
  <!-- Project Document/Folder -->
  <rect x="20" y="35" width="40" height="30" rx="6" fill="url(#folderGrad)" filter="url(#shadow)"/>
  <path d="M 20 41 Q 20 35 26 35 L 34 35 L 37 38 L 54 38 Q 60 38 60 44 L 60 59 Q 60 65 54 65 L 26 65 Q 20 65 20 59 Z" fill="url(#folderGrad)" stroke="#F57F17" stroke-width="2"/>
  
  <!-- Checklist/Tasks inside folder -->
  <circle cx="28" cy="48" r="2" fill="#FFF" opacity="0.9"/>
  <line x1="32" y1="48" x2="44" y2="48" stroke="#FFF" stroke-width="2" stroke-linecap="round" opacity="0.9"/>
  <circle cx="28" cy="55" r="2" fill="#FFF" opacity="0.9"/>
  <line x1="32" y1="55" x2="40" y2="55" stroke="#FFF" stroke-width="2" stroke-linecap="round" opacity="0.9"/>
  
  <!-- Three Avatars representing team collaboration -->
  <!-- Avatar 1 - Left -->
  <circle cx="22" cy="22" r="10" fill="url(#bg1)" filter="url(#shadow)"/>
  <circle cx="22" cy="20" r="3.5" fill="#FFF" opacity="0.9"/>
  <path d="M 15 30 Q 15 25 22 25 Q 29 25 29 30" fill="#FFF" opacity="0.8"/>
  
  <!-- Avatar 2 - Center Top -->
  <circle cx="40" cy="18" r="11" fill="url(#bg2)" filter="url(#shadow)"/>
  <circle cx="40" cy="16" r="4" fill="#FFF" opacity="0.9"/>
  <path d="M 32 26 Q 32 21 40 21 Q 48 21 48 26" fill="#FFF" opacity="0.8"/>
  
  <!-- Avatar 3 - Right -->
  <circle cx="58" cy="22" r="10" fill="url(#bg3)" filter="url(#shadow)"/>
  <circle cx="58" cy="20" r="3.5" fill="#FFF" opacity="0.9"/>
  <path d="M 51 30 Q 51 25 58 25 Q 65 25 65 30" fill="#FFF" opacity="0.8"/>
  
  <!-- Connection lines showing collaboration -->
  <line x1="28" y1="25" x2="34" y2="23" stroke="#9E9E9E" stroke-width="2" stroke-dasharray="3 3" opacity="0.5"/>
  <line x1="46" y1="23" x2="52" y2="25" stroke="#9E9E9E" stroke-width="2" stroke-dasharray="3 3" opacity="0.5"/>
  
  <!-- Small connection nodes -->
  <circle cx="28" cy="25" r="2" fill="#FFB300"/>
  <circle cx="34" cy="23" r="2" fill="#FFB300"/>
  <circle cx="46" cy="23" r="2" fill="#FFB300"/>
  <circle cx="52" cy="25" r="2" fill="#FFB300"/>
</svg>