<svg
  width="80"
  height="80"
  viewBox="0 0 80 80"
  fill="none"
  xmlns="http://www.w3.org/2000/svg"
>
  <!-- Monitor/Screen with gradient -->
  <defs>
    <linearGradient
      id="screenGrad"
      x1="15"
      y1="20"
      x2="65"
      y2="55"
      gradientUnits="userSpaceOnUse"
    >
      <stop stop-color="#E3F2FD" />
      <stop offset="1" stop-color="#BBDEFB" />
    </linearGradient>
    <radialGradient id="eyeGrad" cx="0.5" cy="0.5" r="0.5">
      <stop stop-color="#66BB6A" />
      <stop offset="1" stop-color="#388E3C" />
    </radialGradient>
  </defs>

  <!-- Screen -->
  <rect
    x="15"
    y="20"
    width="50"
    height="35"
    rx="5"
    fill="url(#screenGrad)"
    stroke="#1976D2"
    stroke-width="3"
  />

  <!-- Screen content lines (representing content being captured) -->
  <line
    x1="22"
    y1="28"
    x2="42"
    y2="28"
    stroke="#1976D2"
    stroke-width="2"
    stroke-linecap="round"
    opacity="0.6"
  />
  <line
    x1="22"
    y1="34"
    x2="50"
    y2="34"
    stroke="#1976D2"
    stroke-width="2"
    stroke-linecap="round"
    opacity="0.6"
  />
  <line
    x1="22"
    y1="40"
    x2="38"
    y2="40"
    stroke="#1976D2"
    stroke-width="2"
    stroke-linecap="round"
    opacity="0.6"
  />
  <line
    x1="22"
    y1="46"
    x2="46"
    y2="46"
    stroke="#1976D2"
    stroke-width="2"
    stroke-linecap="round"
    opacity="0.6"
  />

  <!-- Monitor stand -->
  <rect x="35" y="55" width="10" height="5" rx="2" fill="#1976D2" />
  <rect x="30" y="60" width="20" height="4" rx="2" fill="#90CAF9" />

  <!-- Detection Eye/Camera with alert ring -->
  <circle
    cx="60"
    cy="25"
    r="12"
    fill="#FFF"
    stroke="#388E3C"
    stroke-width="3"
  />
  <circle
    cx="60"
    cy="25"
    r="14"
    stroke="#66BB6A"
    stroke-width="1.5"
    stroke-dasharray="3 3"
    opacity="0.7"
  />

  <!-- Eye iris -->
  <ellipse cx="60" cy="25" rx="6" ry="5" fill="url(#eyeGrad)" />
  <circle cx="60" cy="25" r="3" fill="#2E7D32" />
  <circle cx="61" cy="24" r="1.5" fill="#FFF" opacity="0.9" />

  <!-- Alert/Detection indicator -->
  <path
    d="M 55 18 L 58 15 M 65 18 L 62 15 M 67 25 L 70 25 M 65 32 L 68 35"
    stroke="#FF5722"
    stroke-width="2"
    stroke-linecap="round"
  />

  <!-- Camera shutter effect corners -->
  <path
    d="M 20 24 L 18 22 L 20 20"
    stroke="#FF5722"
    stroke-width="2.5"
    stroke-linecap="round"
    stroke-linejoin="round"
  />
  <path
    d="M 60 50 L 62 52 L 60 54"
    stroke="#FF5722"
    stroke-width="2.5"
    stroke-linecap="round"
    stroke-linejoin="round"
  />
</svg>
